<svg width="959" height="234" viewBox="0 0 959 234" fill="none" xmlns="http://www.w3.org/2000/svg">
<path d="M959 0H0V234H959V0Z" fill="#327EF1"/>
<path d="M543.734 66.0391V135.124H604.679V66.0391H543.734ZM593.064 123.496H555.332V77.6487H593.064V123.496Z" fill="white"/>
<path d="M533.516 76.4841C533.499 72.0051 533.481 67.7769 533.445 64.6953H485.424L472.195 90.2079H485.46L492.576 76.4841H521.56C521.56 83.9014 521.56 91.6412 521.543 93.9345C521.543 98.7002 521.704 106.297 519.356 111.439C517.563 115.38 515.054 118.641 511.469 120.916C506.002 124.392 499.369 124.499 495.982 124.625C492.594 124.75 479.007 124.786 479.007 124.786V136.109C479.007 136.109 486.446 136.234 495.068 136.073C503.636 135.912 512.383 134.425 517.581 131.128C524.213 126.918 529.394 120.271 531.706 112.621C532.979 108.411 533.463 102.015 533.516 97.5893C533.552 94.4182 533.534 85.066 533.498 76.4662L533.516 76.4841Z" fill="white"/>
<path d="M651.463 94.7578H614.125V106.367H651.463V94.7578Z" fill="white"/>
<path d="M717.945 102.78C716.404 112.061 713.106 118.17 705.631 121.951C702.566 123.492 697.457 124.226 692.259 124.549V64.7266H680.482V136.409C684.802 136.409 688.907 136.337 692.259 136.248C693.442 136.212 694.536 136.176 695.486 136.122C701.311 135.836 706.85 134.564 710.847 132.485C722.176 126.555 728.557 116.02 729.686 102.619L717.945 102.798V102.78Z" fill="white"/>
<path d="M672.686 64.7266C672.686 64.7266 672.686 109.051 672.686 102.673C672.686 96.2948 673.277 126.591 668.025 136.391H656.267C661.537 126.591 660.927 96.3127 660.927 102.673C660.927 109.033 660.927 64.7266 660.927 64.7266H672.704" fill="white"/>
<path d="M402.002 79.0593C399.743 79.0593 397.18 79.758 394.975 81.2271C394.975 81.2271 394.957 89.1461 394.939 93.9117C394.939 98.6774 395.1 106.274 392.752 111.416C390.96 115.357 388.45 118.618 384.865 120.893C379.398 124.369 372.766 124.477 369.378 124.602C365.99 124.728 352.403 124.763 352.403 124.763V136.086C352.403 136.086 359.842 136.212 368.464 136.051C377.032 135.889 385.779 134.402 390.978 131.106C397.61 126.895 402.79 120.248 405.103 112.58C406.375 108.37 406.859 101.974 406.913 97.5487C407.003 91.2422 406.841 80.8867 406.752 80.2776C405.694 79.3459 403.615 79.0234 402.002 79.0234V79.0593Z" fill="white"/>
<path d="M390.261 64.6953H346.668V76.4841H390.261V64.6953Z" fill="white"/>
<path d="M402.557 53.75C399.904 53.75 397.449 54.3592 395.567 55.3625C395.011 55.6491 394.652 56.2224 394.652 56.8674V75.8944C394.652 76.4318 395.19 76.7722 395.638 76.5393C397.52 75.5539 399.94 74.9627 402.557 74.9627C405.174 74.9627 407.594 75.5539 409.476 76.5393C409.942 76.7902 410.462 76.4139 410.462 75.8944V56.8674C410.462 56.2224 410.104 55.6491 409.566 55.3625C407.666 54.3592 405.228 53.75 402.575 53.75H402.557Z" fill="white"/>
<path d="M421.899 53.75C419.246 53.75 416.79 54.3592 414.908 55.3625C414.352 55.6491 414.012 56.2224 414.012 56.8674V75.8944C414.012 76.4318 414.549 76.7722 414.998 76.5393C416.88 75.5539 419.3 74.9627 421.917 74.9627C424.534 74.9627 426.954 75.5539 428.836 76.5393C429.302 76.7902 429.821 76.4139 429.821 75.8944V56.8674C429.821 56.2224 429.463 55.6491 428.925 55.3625C427.025 54.3592 424.587 53.75 421.935 53.75H421.917H421.899Z" fill="white"/>
<path d="M455.508 93.9154C455.508 98.6811 455.669 106.278 453.321 111.419C451.528 115.361 449.019 118.622 445.434 120.897C439.967 124.373 433.334 124.48 429.947 124.606C426.559 124.731 421.145 124.767 421.145 124.767V136.09C421.145 136.09 420.446 136.215 429.05 136.054C437.618 135.893 446.366 134.406 451.564 131.109C458.196 126.899 463.377 120.252 465.689 112.584C466.962 108.374 467.446 101.978 467.499 97.5524C467.535 94.3812 467.481 93.8438 467.481 93.8438L455.508 93.8796V93.9154Z" fill="white"/>
<path d="M431.165 93.8828H421.109V114.182H431.165V93.8828Z" fill="white"/>
<path d="M446.026 93.8828H435.97V114.182H446.026V93.8828Z" fill="white"/>
<path d="M310.818 89.4941C306.318 76.4332 303.11 64.5906 301.353 56.0805C301.264 55.6147 301.138 55.1488 300.959 54.7009C298.682 48.4303 288.931 47.7315 280.829 50.6698C273.086 53.4826 269.017 58.5171 270.702 63.1753C272.387 67.8335 278.374 69.0697 285.095 66.6331C289.971 64.8594 293.126 61.3837 292.785 58.1767L288.824 58.8037C288.662 59.7712 287.031 61.7061 283.733 62.9065C279.395 64.4831 275.219 63.9994 274.43 61.8136C273.713 59.8429 276.187 56.5642 282.174 54.3964C288.967 51.9239 295.994 52.6943 297.213 56.0446C298.969 60.8641 294.183 67.2243 286.744 69.9296C278.194 73.0471 270.254 72.2408 266.686 67.9947L263.155 69.9476C267.278 77.5978 272.44 88.7237 277.388 101.623C282.64 102.609 289.039 102.035 295.581 99.6525C302.124 97.2697 307.394 93.5969 310.782 89.4762L310.818 89.4941Z" fill="white"/>
<path d="M281.385 112.509C284.647 121.951 287.247 130.765 289.111 138.165C289.899 141.228 290.563 144.059 291.1 146.603C293.717 152.874 304.006 154.916 314.367 151.154C324.728 147.392 331.27 139.204 329.263 132.718C328.044 130.443 326.753 127.863 325.391 125.05C322.039 118.17 318.346 109.714 314.761 100.344C311.373 104.464 306.104 108.137 299.561 110.52C293.036 112.903 286.619 113.476 281.367 112.491L281.385 112.509Z" fill="white"/>
<path d="M279.252 106.528C279.073 106.045 278.893 105.561 278.714 105.077C277.316 105.203 275.9 104.97 274.43 104.468C268.82 102.372 263.46 98.0183 257.007 97.6958C245.912 97.3196 235.013 103.554 229.331 113.032L236.949 117.672C240.104 110.972 246.557 106.152 253.888 104.647C259.14 103.268 264.087 105.794 269.088 107.675C265.97 108.553 262.886 109.646 259.929 111.33C254.659 114.215 250.769 119.088 247.937 124.373L255.358 128.888C257.007 124.176 259.409 119.822 263.496 116.794C268.264 113.193 274.466 111.455 280.148 109.09C279.843 108.248 279.557 107.424 279.252 106.582V106.528Z" fill="white"/>
<path d="M430.95 171.528C430.054 170.937 428.996 170.56 427.742 170.381C428.907 170.184 429.911 169.826 430.735 169.271C431.56 168.715 432.205 168.034 432.635 167.174C433.065 166.314 433.28 165.347 433.28 164.254C433.28 162.642 432.94 161.262 432.277 160.115C431.613 158.969 430.61 158.091 429.319 157.482C428.028 156.873 426.451 156.586 424.623 156.586H413.079V184.858H424.945C426.774 184.858 428.351 184.553 429.642 183.944C430.95 183.335 431.936 182.457 432.617 181.31C433.298 180.164 433.639 178.766 433.639 177.154V177.1C433.639 175.846 433.406 174.753 432.958 173.821C432.492 172.872 431.829 172.101 430.932 171.51L430.95 171.528ZM424.461 161.746C425.573 161.746 426.415 161.997 427.025 162.498C427.634 163 427.939 163.717 427.939 164.612C427.939 165.616 427.634 166.404 427.025 166.959C426.415 167.515 425.573 167.801 424.461 167.801H418.439V161.728H424.461V161.746ZM428.297 176.383C428.297 177.44 427.975 178.282 427.294 178.856C426.63 179.447 425.68 179.734 424.461 179.734H418.439V172.925H424.461C425.268 172.925 425.949 173.051 426.523 173.32C427.096 173.588 427.544 173.965 427.831 174.484C428.136 174.986 428.279 175.595 428.279 176.312V176.365L428.297 176.383Z" fill="white"/>
<path d="M453.052 165.42C451.743 164.739 450.184 164.398 448.337 164.398C446.491 164.398 444.914 164.739 443.623 165.42C442.315 166.1 441.329 167.086 440.648 168.394C439.967 169.702 439.626 171.26 439.626 173.088V176.366C439.626 178.212 439.967 179.806 440.648 181.114C441.329 182.422 442.315 183.425 443.623 184.124C444.932 184.805 446.491 185.163 448.337 185.163C450.184 185.163 451.761 184.823 453.052 184.124C454.36 183.443 455.346 182.44 456.027 181.15C456.708 179.842 457.049 178.283 457.049 176.438V173.088C457.049 171.26 456.708 169.702 456.027 168.394C455.346 167.086 454.36 166.1 453.052 165.42ZM451.707 176.438C451.707 177.585 451.403 178.463 450.811 179.09C450.22 179.717 449.377 180.021 448.302 180.021C447.226 180.021 446.384 179.699 445.81 179.09C445.219 178.463 444.932 177.567 444.932 176.438V173.088C444.932 171.959 445.219 171.081 445.81 170.454C446.402 169.827 447.226 169.522 448.284 169.522C449.341 169.522 450.202 169.827 450.793 170.454C451.385 171.081 451.689 171.959 451.689 173.088V176.438H451.707Z" fill="white"/>
<path d="M476.426 165.42C475.117 164.739 473.558 164.398 471.712 164.398C469.865 164.398 468.288 164.739 466.997 165.42C465.689 166.1 464.703 167.086 464.022 168.394C463.341 169.702 463 171.26 463 173.088V176.366C463 178.212 463.341 179.806 464.022 181.114C464.703 182.422 465.689 183.425 466.997 184.124C468.306 184.805 469.865 185.163 471.712 185.163C473.558 185.163 475.135 184.823 476.426 184.124C477.734 183.443 478.72 182.44 479.401 181.15C480.082 179.842 480.423 178.283 480.423 176.438V173.088C480.423 171.26 480.082 169.702 479.401 168.394C478.72 167.086 477.734 166.1 476.426 165.42ZM475.081 176.438C475.081 177.585 474.777 178.463 474.185 179.09C473.594 179.717 472.751 180.021 471.676 180.021C470.6 180.021 469.758 179.699 469.184 179.09C468.593 178.463 468.306 177.567 468.306 176.438V173.088C468.306 171.959 468.593 171.081 469.184 170.454C469.776 169.827 470.6 169.522 471.676 169.522C472.751 169.522 473.594 169.827 474.185 170.454C474.777 171.081 475.081 171.959 475.081 173.088V176.438Z" fill="white"/>
<path d="M503.923 164.7H498.276L491.698 173.711V156.602H486.374V184.873H491.698V180.699L494.745 176.703L498.742 184.873H504.908L498.222 172.153L503.923 164.7Z" fill="white"/>
<path d="M526.329 172.442C527.512 171.743 528.426 170.758 529.089 169.486C529.735 168.213 530.057 166.726 530.057 165.042C530.057 163.358 529.735 161.871 529.089 160.599C528.444 159.327 527.53 158.342 526.347 157.643C525.164 156.944 523.801 156.586 522.242 156.586H509.838V184.876H515.162V173.499H518.388L524.769 184.876H531.24L524.483 173.212C525.146 173.033 525.755 172.782 526.329 172.442ZM515.162 161.71H521.794C522.349 161.71 522.851 161.853 523.264 162.122C523.676 162.391 523.999 162.785 524.232 163.287C524.465 163.788 524.572 164.379 524.572 165.042C524.572 165.705 524.447 166.296 524.214 166.798C523.981 167.3 523.676 167.694 523.246 167.963C522.833 168.231 522.349 168.375 521.812 168.375H515.18V161.728L515.162 161.71Z" fill="white"/>
<path d="M548.18 165.42C546.871 164.739 545.312 164.398 543.465 164.398C541.619 164.398 540.042 164.739 538.751 165.42C537.443 166.1 536.457 167.086 535.776 168.394C535.094 169.702 534.754 171.26 534.754 173.088V176.366C534.754 178.212 535.094 179.806 535.776 181.114C536.457 182.422 537.443 183.425 538.751 184.124C540.06 184.805 541.619 185.163 543.465 185.163C545.312 185.163 546.889 184.823 548.18 184.124C549.488 183.443 550.474 182.44 551.155 181.15C551.836 179.842 552.177 178.283 552.177 176.438V173.088C552.177 171.26 551.836 169.702 551.155 168.394C550.474 167.086 549.488 166.1 548.18 165.42ZM546.835 176.438C546.835 177.585 546.531 178.463 545.939 179.09C545.348 179.717 544.505 180.021 543.43 180.021C542.354 180.021 541.512 179.699 540.938 179.09C540.346 178.463 540.06 177.567 540.06 176.438V173.088C540.06 171.959 540.346 171.081 540.938 170.454C541.53 169.827 542.354 169.522 543.43 169.522C544.505 169.522 545.348 169.827 545.939 170.454C546.531 171.081 546.835 171.959 546.835 173.088V176.438Z" fill="white"/>
<path d="M563.882 179.355C563.595 179.086 563.452 178.71 563.452 178.208V156.602H558.128V179.534C558.128 181.236 558.576 182.544 559.472 183.476C560.369 184.407 561.623 184.873 563.254 184.873H565.979V179.749H565.083C564.563 179.749 564.169 179.624 563.882 179.355Z" fill="white"/>
<path d="M578.867 179.749C578.347 179.749 577.953 179.624 577.666 179.355C577.379 179.086 577.236 178.71 577.236 178.208V156.602H571.912V179.534C571.912 181.236 572.36 182.544 573.256 183.476C574.153 184.407 575.407 184.873 577.039 184.873H579.763V179.749H578.867Z" fill="white"/>
</svg>
