<?xml version="1.0" encoding="UTF-8"?>
<svg id="Layer_1" xmlns="http://www.w3.org/2000/svg" version="1.1" viewBox="0 0 24 24">
  <!-- Generator: Adobe Illustrator 29.3.1, SVG Export Plug-In . SVG Version: 2.1.0 Build 151)  -->
  <defs>
    <style>
      .st0 {
        fill: none;
        stroke: #4a2f1b;
        stroke-linecap: round;
        stroke-linejoin: round;
        stroke-width: 2px;
      }
    </style>
  </defs>
  <path class="st0" d="M21.4,10.9c.5-.2.7-.8.5-1.3-.1-.2-.3-.4-.5-.5l-8.6-3.9c-.5-.2-1.1-.2-1.7,0l-8.6,3.9c-.5.2-.7.8-.5,1.3.1.2.3.4.5.5l8.6,3.9c.5.2,1.1.2,1.7,0l8.6-3.9Z"/>
  <path class="st0" d="M22,10v6"/>
  <path class="st0" d="M6,12.5v3.5c0,1.7,2.7,3,6,3s6-1.3,6-3v-3.5"/>
</svg>