<svg width="78" height="72" viewBox="0 0 78 72" fill="none" xmlns="http://www.w3.org/2000/svg">
<path d="M2.04961 30.1079C2.61548 30.0294 3.26543 30.389 3.90244 30.389C7.23624 30.3792 10.5959 30.5002 13.9168 30.2027L15.5433 31.6574L15.7017 63.1122L14.4891 64.8154L1.66805 64.8775C-0.808861 63.7693 0.20001 62.0563 0.225879 60.1766C0.34552 50.9481 0.115937 41.713 0.206477 32.4845C0.183842 31.4939 1.07307 30.2484 2.05284 30.1111L2.04961 30.1079Z" fill="#4A2F1B"/>
<path d="M21.8875 15.8019C22.5278 15.5404 23.2036 15.4391 23.8923 15.3868C26.809 15.1579 32.3222 15.0991 35.1839 15.3998C36.2478 15.511 37.3052 15.7366 37.5315 16.9363L37.5865 35.4064C32.0441 42.9448 31.4912 52.1766 35.6172 60.5421C36.4709 62.2715 38.8152 64.0498 35.1128 64.8115C33.4475 65.1548 25.037 65.145 23.2812 64.8671C22.3855 64.7232 21.7679 64.2688 21.5577 63.3535L21.4736 17.5084L21.8908 15.8085L21.8875 15.8019Z" fill="#4A2F1B"/>
<path d="M59.1999 27.1164H52.2704C52.0602 27.1164 48.665 28.0317 48.1832 28.1984C46.547 28.7542 44.8526 29.748 43.4072 30.6993V1.88914C43.4072 1.26475 44.885 0.790729 45.4832 0.728617C47.6626 0.509591 55.8273 0.385373 57.7448 0.754775C58.1652 0.836502 59.2032 1.67338 59.2032 1.88586V27.1164H59.1999Z" fill="#4A2F1B"/>
<path d="M74.7859 71.5951C72.1117 69.8625 69.2371 65.4623 66.7763 63.259C65.997 64.1383 65.0722 64.8183 64.0504 65.3839C47.8956 74.3051 29.946 55.9298 39.9184 40.0356C51.2261 22.0134 78.941 34.5731 72.5159 55.0504C71.8013 57.3256 70.3526 58.9798 69.5507 61.072L77.7413 69.4505C78.304 71.3793 76.5029 72.7098 74.7859 71.5983V71.5951ZM70.3268 49.4995C70.3268 41.1308 63.6107 34.3475 55.323 34.3475C47.0354 34.3475 40.3193 41.1308 40.3193 49.4995C40.3193 57.8683 47.0354 64.6516 55.323 64.6516C63.6107 64.6516 70.3268 57.8683 70.3268 49.4995Z" fill="#4A2F1B"/>
</svg>
