<?xml version="1.0" encoding="UTF-8"?>
<svg xmlns="http://www.w3.org/2000/svg" viewBox="0 0 273 212">
  <defs>
    <style>
      .cls-1 {
        fill: #1a2332;
      }

      .cls-2 {
        fill: #fff;
      }

      .cls-3 {
        fill: #fcfcfc;
      }
    </style>
  </defs>
  <g id="Layer_2" data-name="Layer 2">
    <path class="cls-1" d="M161.83,48.57c0,22.35-14.41,40.47-32.19,40.47s-32.19-18.12-32.19-40.47c0-6.69-2.29-14.21,0-19.76,5.35-13.02,19.73-20.71,32.19-20.71s26.68,9.11,32.19,21.46c2.61,5.85,0,11.83,0,19.01Z"/>
    <rect class="cls-1" x="53.78" y="97.32" width="148.71" height="92.24"/>
    <rect class="cls-1" x="16.51" y="189.56" width="223.62" height="6.4"/>
    <path class="cls-1" d="M118.77,86.67c1.27,4.44,0,5.95,0,5.95h21.03s-1.08-3.85,0-5.64"/>
  </g>
  <g id="Layer_3" data-name="Layer 3">
    <circle class="cls-3" cx="129.71" cy="148.3" r="8.13"/>
    <ellipse class="cls-3" cx="129.59" cy="35.83" rx="28.66" ry="21.63"/>
    <path class="cls-1" d="M129.02,45.12c.12.2.11.45-.03.64l-.85,1.19c.07.2.13.4.18.61s.08.42.09.63l1.27.74c.2.12.32.34.29.57-.05.31-.12.62-.21.92l-.07.22c-.1.3-.23.6-.38.88-.11.21-.33.32-.56.3l-1.46-.14c-.27.32-.59.61-.95.85v1.47c0,.23-.14.45-.36.53-.33.13-.67.23-1.02.31s-.71.12-1.06.14c-.23.01-.44-.13-.54-.34l-.61-1.33c-.42-.08-.83-.21-1.21-.39l-1.27.73c-.2.11-.45.11-.64-.04-.25-.2-.49-.41-.71-.65l-.16-.17c-.21-.24-.4-.49-.57-.76-.12-.2-.11-.45.03-.64l.85-1.19c-.07-.2-.13-.41-.18-.62s-.08-.42-.09-.63l-1.27-.74c-.2-.12-.32-.34-.29-.57.05-.31.12-.62.21-.92l.07-.22c.1-.3.23-.6.38-.88.11-.21.33-.32.56-.3l1.46.14c.27-.32.59-.61.95-.85v-1.47c0-.23.14-.45.36-.53.33-.13.67-.24,1.02-.31s.71-.12,1.06-.14c.23-.01.44.13.54.34l.61,1.33c.42.08.83.21,1.21.39l1.27-.73c.2-.11.45-.11.64.04.25.2.49.41.71.65l.16.17c.21.24.4.49.57.76h0ZM124.03,50.53c1.08-.23,1.77-1.3,1.54-2.38s-1.3-1.77-2.38-1.54-1.77,1.3-1.54,2.38,1.3,1.77,2.38,1.54Z"/>
    <path class="cls-1" d="M151.94,30.25c-.06-.53-.39-2.64-.77-2.93-.41-.32-1.9-.27-2.46-.42-.29-.75-.77-1.4-1.19-2.08l.88-2.13c.05-.42-.93-1.3-1.26-1.59-.33-.29-1.52-1.26-1.88-1.36-.18-.05-.35-.06-.51.02l-1.74,1.1h-.26s-2.08-.76-2.08-.76c-.31-.48-.47-2.06-.89-2.34-.26-.17-1.07-.22-1.41-.24-.72-.04-1.73-.03-2.44.08-.27.04-.53.12-.67.39-.17.34-.57,2.05-.69,2.15-.46.13-.91.27-1.36.43-.31.11-.7.4-1,.28-.48-.18-1.3-.98-1.73-1.11-.57-.17-1.34.52-1.78.87-.38.29-1.68,1.38-1.8,1.76-.07.22-.06.28,0,.5.1.42.82,1.68.81,1.96l-1.15,2.01c-.6.29-2.24.07-2.61.63-.24.36-.52,1.89-.58,2.39-.05.35-.17,1.24-.11,1.54.03.15.12.32.24.42.42.34,1.23.59,1.71.87.11.06.22.13.31.22l.37,2.15-.07.26c-.31.46-1.5,1.34-1.53,1.85-.02.39.79,1.8,1.03,2.21.18.31.79,1.31,1.06,1.45.51.26,1.95-.32,2.56-.37.31.28.61.57.93.84.25.21.85.52.89.82.08.63-.25,1.76-.02,2.33.13.32,1.57.88,1.95,1.02.49.18,1.71.61,2.17.5.34-.08,1.22-1.55,1.52-1.88l2.5.02c.39.37,1.14,1.81,1.62,1.88.57.09,2.45-.63,3.04-.91.65-.3,1.11-.41,1.08-1.24,0-.14-.07-.27-.07-.39-.01-.5,0-.99-.04-1.48l1.86-1.5c.64.06,1.77.54,2.37.44.36-.06,1.07-1.27,1.28-1.63.28-.47.98-1.67.94-2.17,0-.1-.03-.16-.08-.26-.19-.37-1.1-1.06-1.38-1.46-.06-.08-.13-.15-.12-.26l.42-2.28c.43-.35,2.03-.82,2.18-1.32.09-.29,0-.96-.04-1.29Z"/>
    <path class="cls-1" d="M119.99,27.13c.25.22.34.57.23.89l-.68,2.01c.18.24.35.5.5.78s.28.55.39.84l2.07.49c.33.08.58.34.64.67.07.45.1.91.1,1.37v.34c-.02.46-.07.92-.16,1.38-.06.33-.33.58-.66.65l-2.08.42c-.24.56-.56,1.09-.95,1.58l.61,2.03c.1.32,0,.68-.26.88-.4.32-.83.6-1.29.86s-.93.47-1.41.64c-.32.11-.67,0-.89-.24l-1.4-1.59c-.62.07-1.24.06-1.84-.03l-1.45,1.54c-.23.24-.58.34-.9.21-.43-.17-.85-.37-1.25-.6l-.29-.17c-.39-.24-.76-.51-1.1-.81-.25-.22-.34-.57-.23-.89l.68-2.01c-.18-.25-.35-.51-.5-.78s-.28-.55-.39-.84l-2.07-.49c-.33-.08-.58-.34-.64-.67-.07-.45-.1-.91-.1-1.37v-.34c.02-.46.07-.92.16-1.38.06-.33.33-.58.66-.65l2.08-.42c.24-.56.56-1.09.95-1.58l-.61-2.03c-.1-.32,0-.68.26-.88.4-.32.82-.61,1.28-.86s.93-.47,1.41-.64c.32-.11.67,0,.89.24l1.4,1.59c.62-.07,1.24-.06,1.84.03l1.46-1.54c.23-.24.58-.34.9-.21.43.17.85.37,1.25.6l.29.17c.39.24.76.51,1.1.81h0ZM115.35,36.71c1.4-.78,1.91-2.54,1.13-3.94s-2.54-1.91-3.94-1.13-1.91,2.54-1.13,3.94,2.54,1.91,3.94,1.13Z"/>
    <circle class="cls-2" cx="137.62" cy="31.76" r="8.69"/>
  </g>
</svg>