<svg width="70" height="44" viewBox="0 0 70 44" fill="none" xmlns="http://www.w3.org/2000/svg">
<g clip-path="url(#clip0_711_13)">
<path d="M0.145067 33.0167C0.188681 32.7249 0.741886 31.1838 0.897977 30.8099C4.01062 23.3481 15.0931 22.1535 21.0888 26.7678C26.6645 16.7094 43.1413 16.7687 49.0406 26.4874C54.7907 22.7189 64.1562 23.111 68.3133 29.0111C68.6232 29.4511 70.0004 32.0364 70.0004 32.3351V43.4673C70.0004 44.1262 68.3982 44.1262 68.3982 43.4673V33.4704C68.3982 32.6246 67.2321 30.4657 66.6606 29.7407C62.8042 24.8482 54.7976 24.6134 49.9519 28.1311C49.5479 28.7216 50.3054 29.67 50.3054 30.0599V43.4628C50.3054 44.2288 48.4736 43.9848 48.4736 43.4628V30.9672C48.4736 30.069 47.8286 28.5438 47.4154 27.7003C43.1023 18.9025 28.0188 18.8934 22.9964 27.0505C22.6245 27.6569 21.4492 30.1761 21.4492 30.7392V43.4605C21.4492 44.0578 19.6174 44.0578 19.6174 43.4605V30.9649C19.6174 30.2673 20.4507 28.7057 20.0077 28.1927C17.7007 25.5276 10.8626 25.2905 7.8119 26.5239C0.248362 29.5925 1.73352 36.7556 1.98143 43.4194C1.3387 44.035 0.728113 44.3245 0.147362 43.4673C0.48709 40.2482 -0.309434 36.1195 0.147362 33.0167H0.145067Z" fill="#4A2F1B"/>
<path d="M44.1666 9.09865C44.1666 14.1233 40.06 18.1973 34.9939 18.1973C29.9279 18.1973 25.8213 14.1233 25.8213 9.09865C25.8213 4.07399 29.9279 0 34.9939 0C40.06 0 44.1666 4.07399 44.1666 9.09865ZM42.266 9.08497C42.266 5.09534 39.0064 1.86259 34.9848 1.86259C30.9631 1.86259 27.7036 5.09534 27.7036 9.08497C27.7036 13.0746 30.9631 16.3074 34.9848 16.3074C39.0064 16.3074 42.266 13.0746 42.266 9.08497Z" fill="#4A2F1B"/>
<path d="M20.9116 14.8674C20.9116 19.4019 17.2067 23.0769 12.6365 23.0769C8.0662 23.0769 4.36133 19.4019 4.36133 14.8674C4.36133 10.3329 8.0662 6.66016 12.6365 6.66016C17.2067 6.66016 20.9116 10.3352 20.9116 14.8697V14.8674ZM19.1119 14.8925C19.1119 11.3542 16.2197 8.48627 12.6525 8.48627C9.08538 8.48627 6.1931 11.3542 6.1931 14.8925C6.1931 18.4307 9.08538 21.2987 12.6525 21.2987C16.2197 21.2987 19.1119 18.4307 19.1119 14.8925Z" fill="#4A2F1B"/>
<path d="M65.8771 14.8485C65.8771 19.383 62.1699 23.0603 57.5997 23.0603C53.0294 23.0603 49.3223 19.383 49.3223 14.8485C49.3223 10.314 53.0294 6.63672 57.5997 6.63672C62.1699 6.63672 65.8771 10.314 65.8771 14.8485ZM64.089 14.8736C64.089 11.3285 61.1921 8.45599 57.6181 8.45599C54.044 8.45599 51.1472 11.3285 51.1472 14.8736C51.1472 18.4187 54.044 21.2912 57.6181 21.2912C61.1921 21.2912 64.089 18.4187 64.089 14.8736Z" fill="#4A2F1B"/>
</g>
<defs>
<clipPath id="clip0_711_13">
<rect width="70" height="44" fill="white"/>
</clipPath>
</defs>
</svg>
