<svg width="68" height="68" viewBox="0 0 68 68" fill="none" xmlns="http://www.w3.org/2000/svg">
<path d="M41.1699 35.329L18.7526 57.7435C17.6254 58.8707 16.0967 59.5039 14.5026 59.5039C12.9085 59.5039 11.3798 58.8707 10.2526 57.7435C9.12542 56.6163 8.49219 55.0876 8.49219 53.4935C8.49219 51.8994 9.12542 50.3707 10.2526 49.2435L32.6699 26.8262" stroke="#4A2F1B" stroke-width="2" stroke-linecap="round" stroke-linejoin="round"/>
<path d="M44.4437 12.2231C40.1661 9.5583 35.3691 7.83713 30.3731 7.17458C25.3771 6.51203 20.2972 6.92336 15.4729 8.38108C15.0434 8.6545 14.6955 9.03859 14.4658 9.49297C14.2362 9.94735 14.1331 10.4552 14.1676 10.9632C14.2021 11.4711 14.3729 11.9604 14.6619 12.3796C14.9509 12.7987 15.3475 13.1322 15.8101 13.3451C22.2627 15.5489 28.31 18.7966 33.7111 22.9586" stroke="#4A2F1B" stroke-width="2" stroke-linecap="round" stroke-linejoin="round"/>
<path d="M50.1498 10.4838C49.6201 9.96461 48.9081 9.67383 48.1664 9.67383C47.4248 9.67383 46.7127 9.96461 46.1831 10.4838L33.1498 23.5171C32.6306 24.0467 32.3398 24.7588 32.3398 25.5004C32.3398 26.2421 32.6306 26.9541 33.1498 27.4838L40.5164 34.8504C41.0461 35.3696 41.7581 35.6604 42.4998 35.6604C43.2414 35.6604 43.9535 35.3696 44.4831 34.8504L57.5164 21.8171C58.0356 21.2875 58.3264 20.5754 58.3264 19.8338C58.3264 19.0921 58.0356 18.3801 57.5164 17.8504L50.1498 10.4838Z" stroke="#4A2F1B" stroke-width="2" stroke-linecap="round" stroke-linejoin="round"/>
<path d="M55.7766 23.5566C58.4412 27.8343 60.1623 32.6314 60.8248 37.6273C61.4874 42.6233 61.0762 47.7031 59.6186 52.5275C59.345 52.9562 58.961 53.3035 58.507 53.5327C58.0529 53.7619 57.5455 53.8646 57.038 53.8301C56.5306 53.7956 56.0418 53.6252 55.6229 53.3367C55.204 53.0481 54.8705 52.6522 54.6574 52.1903C52.4539 45.7367 49.2062 39.6884 45.0439 34.2865" stroke="#4A2F1B" stroke-width="2" stroke-linecap="round" stroke-linejoin="round"/>
</svg>
