<svg width="70" height="70" viewBox="0 0 70 70" fill="none" xmlns="http://www.w3.org/2000/svg">
<path d="M40.8337 64.166V52.4993C40.8337 50.9523 40.2191 49.4685 39.1251 48.3746C38.0312 47.2806 36.5474 46.666 35.0003 46.666C33.4532 46.666 31.9695 47.2806 30.8755 48.3746C29.7816 49.4685 29.167 50.9523 29.167 52.4993V64.166" stroke="black" stroke-width="2" stroke-linecap="round" stroke-linejoin="round"/>
<path d="M52.4997 29.166L62.5534 34.1943C63.0378 34.4364 63.4453 34.8085 63.7301 35.2691C64.015 35.7296 64.166 36.2603 64.1663 36.8018V58.3327C64.1663 59.8798 63.5518 61.3635 62.4578 62.4575C61.3638 63.5514 59.8801 64.166 58.333 64.166H11.6663C10.1192 64.166 8.63551 63.5514 7.54155 62.4575C6.44759 61.3635 5.83301 59.8798 5.83301 58.3327V36.8018C5.8333 36.2603 5.98433 35.7296 6.2692 35.2691C6.55407 34.8085 6.96152 34.4364 7.44592 34.1943L17.4997 29.166" stroke="black" stroke-width="2" stroke-linecap="round" stroke-linejoin="round"/>
<path d="M52.5 14.584V64.1673" stroke="black" stroke-width="2" stroke-linecap="round" stroke-linejoin="round"/>
<path d="M11.667 17.4996L32.3928 7.1367C33.2025 6.73211 34.0952 6.52148 35.0003 6.52148C35.9054 6.52148 36.7982 6.73211 37.6078 7.1367L58.3337 17.4996" stroke="black" stroke-width="2" stroke-linecap="round" stroke-linejoin="round"/>
<path d="M17.5 14.584V64.1673" stroke="black" stroke-width="2" stroke-linecap="round" stroke-linejoin="round"/>
<path d="M35.0003 32.0827C38.222 32.0827 40.8337 29.471 40.8337 26.2493C40.8337 23.0277 38.222 20.416 35.0003 20.416C31.7787 20.416 29.167 23.0277 29.167 26.2493C29.167 29.471 31.7787 32.0827 35.0003 32.0827Z" stroke="black" stroke-width="2" stroke-linecap="round" stroke-linejoin="round"/>
</svg>
