<?xml version="1.0" encoding="UTF-8"?>
<svg id="Layer_1" data-name="Layer 1" xmlns="http://www.w3.org/2000/svg" viewBox="0 0 67.87 196.81">
  <defs>
    <style>
      .cls-1 {
        fill: #4a301c;
      }
    </style>
  </defs>
  <path class="cls-1" d="M30.75.15c17.46-1.68,34.28,11.38,36.03,29.08,1.29,13.02,1.76,54.15-.44,66.21-6.45,35.32-61.31,33.51-65.23-2.53-1.62-14.9-1.34-47.55-.03-62.73C2.44,14.47,14.99,1.66,30.75.15ZM32.78,4.08c-11.87.45-23,9.16-26.41,20.44-2.8,9.28-2.29,53.95-1.31,65.43,3.1,36.11,54.69,36.1,57.78,0,1.3-15.13,1.3-43.66,0-58.78S48.35,3.49,32.78,4.08Z"/>
  <path class="cls-1" d="M2.63,130.22l30.97,29.77,30.72-29.77c1.35-.3,2.51,1.17,2.51,2.49,0,2.35-28.93,29.79-33.23,33.25L1.27,133.53l1.36-3.31Z"/>
  <path class="cls-1" d="M66.79,162.06l-1.44,4.02-31.03,30.73L1.1,163.56c-.5-2.74,3.3-1.54,4.54-.56l28.67,27.84,27.95-27.84,4.52-.94Z"/>
  <circle class="cls-1" cx="33.89" cy="27.56" r="6.5"/>
</svg>